<svg xmlns="http://www.w3.org/2000/svg" width="44" height="44" viewBox="0 0 44 44" fill="none">
  <path d="M27 32C26.1667 32 25.4583 31.7083 24.875 31.125C24.2917 30.5417 24 29.8333 24 29C24 28.9 24.025 28.6667 24.075 28.3L17.05 24.2C16.7833 24.45 16.475 24.646 16.125 24.788C15.775 24.93 15.4 25.0007 15 25C14.1667 25 13.4583 24.7083 12.875 24.125C12.2917 23.5417 12 22.8333 12 22C12 21.1667 12.2917 20.4583 12.875 19.875C13.4583 19.2917 14.1667 19 15 19C15.4 19 15.775 19.071 16.125 19.213C16.475 19.355 16.7833 19.5507 17.05 19.8L24.075 15.7C24.0417 15.5833 24.021 15.471 24.013 15.363C24.005 15.255 24.0007 15.134 24 15C24 14.1667 24.2917 13.4583 24.875 12.875C25.4583 12.2917 26.1667 12 27 12C27.8333 12 28.5417 12.2917 29.125 12.875C29.7083 13.4583 30 14.1667 30 15C30 15.8333 29.7083 16.5417 29.125 17.125C28.5417 17.7083 27.8333 18 27 18C26.6 18 26.225 17.929 25.875 17.787C25.525 17.645 25.2167 17.4493 24.95 17.2L17.925 21.3C17.9583 21.4167 17.9793 21.5293 17.988 21.638C17.9967 21.7467 18.0007 21.8673 18 22C17.9993 22.1327 17.9953 22.2537 17.988 22.363C17.9807 22.4723 17.9597 22.5847 17.925 22.7L24.95 26.8C25.2167 26.55 25.525 26.3543 25.875 26.213C26.225 26.0717 26.6 26.0007 27 26C27.8333 26 28.5417 26.2917 29.125 26.875C29.7083 27.4583 30 28.1667 30 29C30 29.8333 29.7083 30.5417 29.125 31.125C28.5417 31.7083 27.8333 32 27 32ZM27 30C27.2833 30 27.521 29.9043 27.713 29.713C27.905 29.5217 28.0007 29.284 28 29C27.9993 28.716 27.9033 28.4787 27.712 28.288C27.5207 28.0973 27.2833 28.0013 27 28C26.7167 27.9987 26.4793 28.0947 26.288 28.288C26.0967 28.4813 26.0007 28.7187 26 29C25.9993 29.2813 26.0953 29.519 26.288 29.713C26.4807 29.907 26.718 30.0027 27 30ZM15 23C15.2833 23 15.521 22.904 15.713 22.712C15.905 22.52 16.0007 22.2827 16 22C15.9993 21.7173 15.9033 21.48 15.712 21.288C15.5207 21.096 15.2833 21 15 21C14.7167 21 14.4793 21.096 14.288 21.288C14.0967 21.48 14.0007 21.7173 14 22C13.9993 22.2827 14.0953 22.5203 14.288 22.713C14.4807 22.9057 14.718 23.0013 15 23ZM27 16C27.2833 16 27.521 15.904 27.713 15.712C27.905 15.52 28.0007 15.2827 28 15C27.9993 14.7173 27.9033 14.48 27.712 14.288C27.5207 14.096 27.2833 14 27 14C26.7167 14 26.4793 14.096 26.288 14.288C26.0967 14.48 26.0007 14.7173 26 15C25.9993 15.2827 26.0953 15.5203 26.288 15.713C26.4807 15.9057 26.718 16.0013 27 16Z" fill="#013565"/>
</svg>