<svg xmlns="http://www.w3.org/2000/svg" width="71" height="71" viewBox="0 0 71 71" fill="none">
  <path d="M51.5417 62.1587H54.4583V54.867H61.75V51.9504H54.4583V44.6587H51.5417V51.9504H44.25V54.867H51.5417V62.1587ZM53 67.992C48.9653 67.992 45.5265 66.5697 42.6838 63.7249C39.841 60.8802 38.4186 57.4415 38.4167 53.4087C38.4147 49.3759 39.8371 45.9372 42.6838 43.0924C45.5304 40.2477 48.9692 38.8254 53 38.8254C57.0308 38.8254 60.4706 40.2477 63.3192 43.0924C66.1678 45.9372 67.5892 49.3759 67.5833 53.4087C67.5775 57.4415 66.1551 60.8812 63.3163 63.7279C60.4774 66.5745 57.0386 67.9959 53 67.992ZM20.9167 27.1587H50.0833V21.3254H20.9167V27.1587ZM34.5521 62.1587H15.0833C13.4792 62.1587 12.1064 61.588 10.965 60.4466C9.82361 59.3052 9.25194 57.9315 9.25 56.3254V15.492C9.25 13.8879 9.82167 12.5151 10.965 11.3737C12.1083 10.2323 13.4811 9.66064 15.0833 9.65869H55.9167C57.5208 9.65869 58.8946 10.2304 60.0379 11.3737C61.1813 12.517 61.7519 13.8898 61.75 15.492V35.0337C60.3403 34.3531 58.9179 33.8427 57.4829 33.5024C56.0479 33.1622 54.5536 32.992 53 32.992C52.4653 32.992 51.9665 33.0037 51.5037 33.027C51.041 33.0504 50.5675 33.1116 50.0833 33.2108V32.992H20.9167V38.8254H38.7812C37.9062 39.6517 37.1168 40.5511 36.4129 41.5233C35.709 42.4955 35.0888 43.5406 34.5521 44.6587H20.9167V50.492H32.8021C32.7049 50.9781 32.6446 51.4526 32.6213 51.9154C32.5979 52.3781 32.5853 52.8759 32.5833 53.4087C32.5833 55.0129 32.7292 56.5081 33.0208 57.8945C33.3125 59.2809 33.8229 60.7023 34.5521 62.1587Z" fill="#0000C4"/>
</svg>