<svg xmlns="http://www.w3.org/2000/svg" width="71" height="70" viewBox="0 0 71 70" fill="none">
  <path d="M63.8209 59.1792L59.6792 63.3209C59.1327 63.8641 58.3935 64.169 57.623 64.169C56.8524 64.169 56.1132 63.8641 55.5667 63.3209L20.9167 28.7292C19.9683 29.0043 18.9874 29.1515 18 29.1667C16.143 29.1654 14.3131 28.7208 12.6625 27.8699C11.0119 27.0189 9.58826 25.7863 8.50996 24.2744C7.43167 22.7625 6.72986 21.015 6.46289 19.1773C6.19592 17.3395 6.3715 15.4646 6.97503 13.7084L14.3834 21.1167L15.9292 19.5709L20.0709 15.4292L21.6167 13.8834L14.2084 6.47504C15.9646 5.8715 17.8395 5.69592 19.6773 5.96289C21.515 6.22986 23.2625 6.93167 24.7744 8.00997C26.2863 9.08827 27.5189 10.5119 28.3698 12.1625C29.2208 13.8131 29.6654 15.643 29.6667 17.5C29.6515 18.4874 29.5043 19.4683 29.2292 20.4167L63.8209 55.0667C64.3641 55.6132 64.669 56.3524 64.669 57.123C64.669 57.8935 64.3641 58.6327 63.8209 59.1792ZM7.1792 55.0667C6.63597 55.6132 6.33105 56.3524 6.33105 57.123C6.33105 57.8935 6.63597 58.6327 7.1792 59.1792L11.3209 63.3209C11.8673 63.8641 12.6066 64.169 13.3771 64.169C14.1477 64.169 14.8869 63.8641 15.4334 63.3209L31.3875 47.3959L23.1334 39.1417M58.8334 5.83337L47.1667 11.6667V17.5L40.8375 23.8292L46.6709 29.6625L53 23.3334H58.8334L64.6667 11.6667L58.8334 5.83337Z" fill="#02135B"/>
</svg>