<svg xmlns="http://www.w3.org/2000/svg" width="71" height="70" viewBox="0 0 71 70" fill="none">
  <g clip-path="url(#clip0_3_442)">
    <path fill-rule="evenodd" clip-rule="evenodd" d="M36.8533 0.434026C36.4582 0.152663 35.9851 0.00146484 35.5 0.00146484C35.0149 0.00146484 34.5418 0.152663 34.1467 0.434026L1.48 23.7674C1.17716 23.983 0.930216 24.2678 0.759751 24.5982C0.589285 24.9286 0.500229 25.2949 0.5 25.6667L0.5 67.6667C0.5 68.2855 0.745833 68.879 1.18342 69.3166C1.621 69.7542 2.21449 70 2.83333 70H9.83333V37.3334H33.1667V70H68.1667C68.7855 70 69.379 69.7542 69.8166 69.3166C70.2542 68.879 70.5 68.2855 70.5 67.6667V25.6667C70.4998 25.2949 70.4107 24.9286 70.2402 24.5982C70.0698 24.2678 69.8228 23.983 69.52 23.7674L65.8333 21.1307V9.33336H61.1667V17.7987L36.8533 0.434026ZM51.8333 56V37.3334H56.5V56H51.8333Z" fill="#02135B"/>
    <path d="M28.5 70V56H23.8333V51.3333H28.5V42H14.5V70H28.5Z" fill="#02135B"/>
  </g>
  <defs>
    <clipPath id="clip0_3_442">
      <rect width="70" height="70" fill="white" transform="translate(0.5)"/>
    </clipPath>
  </defs>
</svg>