<svg xmlns="http://www.w3.org/2000/svg" width="87" height="88" viewBox="0 0 87 88" fill="none">
  <path d="M66.9271 33.1937C65.9052 34.2091 64.5231 34.7789 63.0826 34.7789C61.6421 34.7789 60.26 34.2091 59.2381 33.1937L54.7233 28.6789C53.707 27.6571 53.1366 26.2747 53.1366 24.8336C53.1366 23.3925 53.707 22.01 54.7233 20.9882L64.9424 10.764C64.9626 10.7446 64.9777 10.7204 64.9863 10.6937C64.9949 10.667 64.9968 10.6386 64.9917 10.611C64.9867 10.5834 64.9749 10.5575 64.9574 10.5356C64.9399 10.5136 64.9172 10.4964 64.8914 10.4854C58.2951 7.65786 49.7429 9.09879 44.3122 14.4904C39.116 19.6475 38.8203 27.4045 40.7234 34.1742C40.9938 35.1364 40.9932 36.1547 40.7215 37.1166C40.4499 38.0785 39.9178 38.9466 39.1839 39.6253L10.875 65.4789C10.0397 66.2194 9.36481 67.1229 8.89167 68.134C8.41853 69.145 8.15717 70.2421 8.12368 71.3578C8.09019 72.4735 8.28526 73.5843 8.6969 74.6219C9.10855 75.6595 9.72807 76.6019 10.5174 77.3912C11.3067 78.1805 12.2491 78.8 13.2866 79.2116C14.3242 79.6233 15.435 79.8183 16.5507 79.7848C17.6665 79.7513 18.7636 79.49 19.7746 79.0169C20.7856 78.5437 21.6891 77.8688 22.4297 77.0336L48.5738 48.6566C49.2438 47.9351 50.0976 47.4096 51.0435 47.1363C51.9894 46.863 52.9918 46.8523 53.9434 47.1052C60.6621 48.9047 68.3085 48.5665 73.4368 43.5046C78.9576 38.0671 80.1487 28.4563 77.4724 22.9559C77.4604 22.9319 77.4428 22.9111 77.4211 22.8951C77.3995 22.8792 77.3743 22.8687 77.3478 22.8644C77.3212 22.86 77.2941 22.8621 77.2685 22.8703C77.2429 22.8786 77.2196 22.8928 77.2006 22.9117L66.9271 33.1937Z" stroke="#0A2A59" stroke-width="6" stroke-miterlimit="10" stroke-linecap="round"/>
  <path d="M16.3125 74.3149C17.814 74.3149 19.0312 73.0977 19.0312 71.5962C19.0312 70.0947 17.814 68.8774 16.3125 68.8774C14.811 68.8774 13.5938 70.0947 13.5938 71.5962C13.5938 73.0977 14.811 74.3149 16.3125 74.3149Z" fill="#0A2A59"/>
</svg>