<svg xmlns="http://www.w3.org/2000/svg" width="71" height="70" viewBox="0 0 71 70" fill="none">
  <path d="M35.2325 60C34.3751 60 33.6217 59.7099 32.9722 59.1296C32.3227 58.5539 31.9979 57.7949 31.9979 56.8526C31.9979 56.4023 32.0972 55.9032 32.2958 55.3554C32.4944 54.8076 32.7911 54.3376 33.1859 53.9453L46.0928 41.1257L44.1583 39.2039L31.2725 52.0234C30.8754 52.418 30.428 52.7128 29.9303 52.9078C29.4327 53.1051 28.9269 53.2037 28.4129 53.2037C27.5111 53.2037 26.746 52.8915 26.1175 52.2672C25.489 51.6428 25.176 50.8838 25.1783 49.9901C25.1783 49.454 25.2881 48.9305 25.5077 48.4199C25.7297 47.9092 26.0089 47.4856 26.3453 47.1491L39.2521 34.3295L37.3352 32.425L24.4319 45.2307C24.0814 45.5788 23.6457 45.8632 23.1247 46.0837C22.6037 46.3042 22.0804 46.4133 21.5547 46.411C20.6646 46.411 19.903 46.0964 19.2698 45.4674C18.6367 44.8384 18.3201 44.0817 18.3201 43.1974C18.3201 42.6867 18.4183 42.1842 18.6145 41.6898C18.8108 41.1954 19.1075 40.7509 19.5046 40.3563L31.6019 28.3375L29.6675 26.4365L17.5912 38.4553C17.2548 38.7895 16.8261 39.0669 16.3051 39.2874C15.7818 39.5056 15.2514 39.6147 14.7141 39.6147C13.7655 39.6147 12.9887 39.3141 12.3836 38.7129C11.7809 38.1141 11.4795 37.3435 11.4795 36.4011C11.4795 35.8904 11.5776 35.3879 11.7739 34.8935C11.9724 34.3991 12.2692 33.9546 12.664 33.56L29.9759 16.3605L37.5244 23.8809C38.1669 24.5192 38.8923 24.9707 39.7007 25.2353C40.5114 25.5022 41.3314 25.6357 42.1608 25.6357C43.8499 25.6357 45.261 25.0833 46.3941 23.9784C47.5272 22.8736 48.0938 21.4612 48.0938 19.7412C48.0938 18.9288 47.9361 18.1094 47.6207 17.2831C47.3053 16.4591 46.8135 15.714 46.1453 15.0479L36.8656 5.82835L40.2999 2.41629C41.0709 1.66425 42.0019 1.07584 43.093 0.651076C44.184 0.223988 45.2751 0.0104451 46.3661 0.0104451C47.5272 0.0104451 48.6603 0.223988 49.7654 0.651076C50.8705 1.07584 51.8132 1.67701 52.5935 2.45459L67.6065 17.3771C68.3424 18.1106 68.9253 19.0042 69.3552 20.058C69.7851 21.1095 70 22.2759 70 23.5571C70 24.7177 69.7816 25.8144 69.3447 26.8473C68.9101 27.8802 68.3307 28.7565 67.6065 29.476L38.0957 58.8162C37.7172 59.1922 37.2733 59.4824 36.764 59.6866C36.2593 59.8932 35.75 59.9965 35.236 59.9965M8.62338 33.748L4.99629 30.1445C4.00337 29.1719 3.25575 28.0033 2.75345 26.6384C2.25115 25.2713 2 23.9366 2 22.6345C2 21.2604 2.22428 20.0128 2.67285 18.8917C3.12142 17.7706 3.69381 16.8642 4.39002 16.1725L18.187 2.44763C18.9416 1.69791 19.7827 1.10254 20.7102 0.661521C21.633 0.220507 22.6411 0 23.7345 0C24.9073 0 25.982 0.207741 26.9586 0.623223C27.9398 1.03638 28.8346 1.64452 29.643 2.44763L44.2354 16.9419C44.5859 17.2901 44.8709 17.723 45.0905 18.2406C45.3101 18.7582 45.4199 19.2491 45.4199 19.7133C45.4199 20.6418 45.115 21.4217 44.5053 22.053C43.8932 22.6797 43.1198 22.9931 42.1853 22.9931C41.6597 22.9931 41.1539 22.8991 40.6679 22.7111C40.1843 22.5207 39.7381 22.2225 39.3292 21.8163L29.9584 12.5515L8.62338 33.748Z" fill="#C60001"/>
</svg>