<?xml version="1.0" encoding="UTF-8"?>
<svg id="Capa_1" xmlns="http://www.w3.org/2000/svg" version="1.1" viewBox="0 0 1000 500">
  <!-- Generator: Adobe Illustrator 29.8.1, SVG Export Plug-In . SVG Version: 2.1.1 Build 2)  -->
  <defs>
    <style>
      .st0 {
        fill: #c60500;
      }

      .st1 {
        fill: #0a2a59;
      }
    </style>
  </defs>
  <path class="st0" d="M831.21,459.67h68.23v-130.55c-3.5.89-7.18,1.34-10.93,1.34-12.73,0-24.3-5.27-32.46-13.77-7.91-8.12-12.76-19.21-12.76-31.45,0-5.43.96-10.65,2.74-15.47-.68-.05-1.35-.05-2.03-.05h-119.57v63.41h74.98c-3.78,28-32.24,51.06-77.54,51.06-58.54,0-92.97-38.48-92.97-85.73v-40c0-48.77,38.53-87.3,102.71-87.3,37.43,0,70.77,16.28,92.91,37.82l-9.59,8.53,17.02,19.12,76.71-68.16-17-19.12-9.31,8.24c-27.34-30.06-69.96-53.14-123.1-60.11-6.49-.84-12.81-3.1-17.95-7.13-6.27-4.89-14.23-8.39-23.1-9.78v-6.82c2-1.19,3.8-2.69,5.2-4.54,2.16-2.85,5.37-4.72,8.96-4.72h33.84c6.03,0,11.89,1.76,17.1,4.79,1.84,1.07,3.98,1.69,6.27,1.69,7.95,0,14.2-7.35,12.29-15.63-1.09-4.74-5.07-8.5-9.85-9.4-3.47-.66-6.72.12-9.31,1.83-4.83,3.2-10.71,4.42-16.51,4.42h-33.84c-3.58,0-6.8-1.87-8.96-4.72-3.27-4.32-8.43-7.12-14.27-7.12s-11,2.8-14.27,7.12c-2.16,2.86-5.37,4.72-8.96,4.72h-33.83c-5.8,0-11.67-1.23-16.51-4.42-2.59-1.71-5.84-2.49-9.31-1.83-4.78.9-8.76,4.66-9.85,9.4-1.9,8.28,4.33,15.63,12.29,15.63,2.29,0,4.43-.62,6.27-1.69,5.21-3.04,11.06-4.79,17.09-4.79h33.84c3.59,0,6.8,1.86,8.96,4.72,1.4,1.85,3.2,3.34,5.2,4.54v6.82c-11.46,1.83-21.38,7.1-28.07,14.41-4.49,4.91-10.53,8.16-16.92,10.04-50.65,14.92-89.23,45.78-110.15,84.69v-123.65h-77.03c-33.25,0-63.13,20.36-75.28,51.31l-63.2,160.87-13.72,37.24-13.72-37.24-63.64-161.02c-12.2-30.87-42.02-51.16-75.22-51.16h-79.68v393.61h90.48V194.89l18.82,50.22,87.41,214.54h59.46l88.45-213.93,18.79-50.25v264.18h98.09v-87.94c27.11,51.95,84.69,87.96,166.67,87.96,50.12,0,91.41-17.67,119.62-46.67v46.67Z"/>
  <path class="st1" d="M888.51,228.9s-5.32,8.7-10.95,17.91c-6.34,10.3-13.04,21.23-13.09,21.31l-.05.08c-.86,1.44-1.6,2.99-2.21,4.59-1.12,3.04-1.72,6.31-1.72,9.74,0,7.58,3.02,14.46,7.91,19.48,5.07,5.27,12.22,8.55,20.11,8.55,2.99,0,5.88-.46,8.6-1.35,7-2.23,12.78-7.16,16.16-13.52,2.1-3.91,3.29-8.39,3.29-13.16,0-5.23-1.44-10.12-3.91-14.33l-.07-.08c-.05-.08-7.38-12.03-13.93-22.7-5.33-8.65-10.15-16.51-10.15-16.51Z"/>
</svg>