<svg xmlns="http://www.w3.org/2000/svg" width="204" height="38" viewBox="0 0 204 38" fill="none">
  <g clip-path="url(#clip0_1_356)">
    <path d="M52.4628 36.0076V31.7916H53.5861C53.9158 31.7916 54.2108 31.87 54.4723 32.0277C54.7338 32.1855 54.9373 32.4105 55.0838 32.7039C55.2303 32.9973 55.3036 33.3309 55.3036 33.7057V34.0935C55.3036 34.4703 55.2303 34.8039 55.0859 35.0952C54.9404 35.3866 54.7359 35.6117 54.4713 35.7704C54.2068 35.9292 53.9036 36.0076 53.5617 36.0076H52.4628ZM52.8027 32.092V35.7061H53.5648C53.988 35.7061 54.3278 35.5584 54.5832 35.264C54.8386 34.9696 54.9668 34.5708 54.9668 34.0684V33.6976C54.9668 33.2123 54.8407 32.8245 54.5883 32.5321C54.336 32.2397 54.0043 32.093 53.5922 32.091H52.8027V32.092Z" fill="#A8DC01"/>
    <path d="M53.5617 36.2939H52.1739V31.5052H53.5871C53.9687 31.5052 54.3177 31.5987 54.6239 31.7825C54.9322 31.9684 55.1744 32.2357 55.3443 32.5773C55.5101 32.9089 55.5936 33.2877 55.5936 33.7047V34.0925C55.5936 34.5115 55.5101 34.8913 55.3453 35.2208C55.1754 35.5614 54.9322 35.8277 54.6219 36.0136C54.3136 36.1995 53.9575 36.2929 53.5617 36.2929M53.0916 35.4208H53.5637C53.9015 35.4208 54.163 35.3093 54.3624 35.0782C54.571 34.838 54.6768 34.4994 54.6768 34.0694V33.6996C54.6768 33.2806 54.5761 32.9611 54.3675 32.719C54.1712 32.4919 53.9168 32.3804 53.5902 32.3794H53.0916V35.4218V35.4208Z" fill="#A8DC01"/>
    <path d="M64.0375 33.986H62.1572V35.7061H64.3183V36.0076H61.8174V31.7916H64.3051V32.092H62.1572V33.6856H64.0375V33.986Z" fill="#A8DC01"/>
    <path d="M64.6083 36.2939H61.5274V31.5052H64.594V32.3784H62.4472V33.3992H64.3264V34.2723H62.4472V35.4208H64.6083V36.2939Z" fill="#A8DC01"/>
    <path d="M72.9616 34.9706C72.9616 34.7375 72.8833 34.5527 72.7266 34.416C72.5699 34.2804 72.284 34.1508 71.8679 34.0282C71.4517 33.9056 71.1485 33.772 70.9572 33.6273C70.6846 33.4223 70.5482 33.154 70.5482 32.8225C70.5482 32.4909 70.6744 32.2377 70.9277 32.0357C71.1811 31.8338 71.5046 31.7333 71.8984 31.7333C72.165 31.7333 72.4041 31.7876 72.6147 31.8951C72.8253 32.0036 72.9891 32.1533 73.1051 32.3472C73.2211 32.5401 73.2791 32.7552 73.2791 32.9933H72.9372C72.9372 32.7049 72.8436 32.4728 72.6554 32.298C72.4682 32.1232 72.2158 32.0347 71.8994 32.0347C71.583 32.0347 71.3479 32.1071 71.1648 32.2508C70.9827 32.3944 70.8911 32.5823 70.8911 32.8154C70.8911 33.0295 70.9735 33.2053 71.1373 33.3399C71.3011 33.4756 71.5637 33.5951 71.9238 33.6986C72.284 33.8021 72.5577 33.9086 72.7439 34.0201C72.9301 34.1307 73.0695 34.2643 73.1631 34.418C73.2567 34.5728 73.3035 34.7546 73.3035 34.9656C73.3035 35.2972 73.1773 35.5645 72.924 35.7644C72.6706 35.9654 72.3369 36.0658 71.9228 36.0658C71.64 36.0658 71.3795 36.0126 71.1434 35.9061C70.9074 35.7996 70.7273 35.6509 70.6052 35.46C70.4831 35.2691 70.4221 35.05 70.4221 34.8029H70.7619C70.7619 35.1003 70.8677 35.3344 71.0793 35.5062C71.291 35.678 71.5728 35.7644 71.9238 35.7644C72.2362 35.7644 72.4885 35.6921 72.6778 35.5474C72.867 35.4027 72.9616 35.2108 72.9616 34.9706Z" fill="#A8DC01"/>
    <path d="M71.9238 36.3522C71.5993 36.3522 71.2971 36.2899 71.0234 36.1663C70.7354 36.0367 70.5126 35.8508 70.36 35.6127C70.2084 35.3766 70.1321 35.1043 70.1321 34.8029V34.5165H71.0509V34.8029C71.0509 35.0149 71.118 35.1676 71.2625 35.2851C71.4222 35.4148 71.6389 35.4781 71.9238 35.4781C72.1701 35.4781 72.3634 35.4248 72.4997 35.3213C72.6188 35.2309 72.6717 35.1224 72.6717 34.9717C72.6717 34.7737 72.5943 34.6833 72.5353 34.632C72.4488 34.5577 72.2494 34.4401 71.7855 34.3035C71.3296 34.1688 71.001 34.0222 70.7812 33.8544C70.4404 33.5992 70.2593 33.2425 70.2593 32.8225C70.2593 32.4025 70.4282 32.0689 70.7466 31.8137C71.0509 31.5705 71.4395 31.448 71.8994 31.448C72.2118 31.448 72.4977 31.5133 72.749 31.6419C73.0064 31.7745 73.2109 31.9624 73.3544 32.2015C73.4968 32.4387 73.5691 32.7039 73.5691 32.9933V33.2796H72.6472V32.9933C72.6472 32.7813 72.5862 32.6265 72.456 32.505C72.1904 32.2578 71.6054 32.2678 71.3449 32.4738C71.2309 32.5642 71.1801 32.6687 71.1801 32.8154C71.1801 32.9461 71.2238 33.0395 71.3215 33.1199C71.4131 33.1952 71.6043 33.3088 72.0042 33.4233C72.3908 33.5338 72.6818 33.6494 72.8925 33.774C73.1183 33.9086 73.2923 34.0764 73.4103 34.2703C73.5314 34.4683 73.5925 34.7024 73.5925 34.9636C73.5925 35.3856 73.4276 35.7292 73.1041 35.9865C72.7999 36.2276 72.402 36.3502 71.9228 36.3502" fill="#A8DC01"/>
    <path d="M80.1032 31.7916H79.7634V36.0076H80.1032V31.7916Z" fill="#A8DC01"/>
    <path d="M80.3922 31.5052H79.4734V36.2939H80.3922V31.5052Z" fill="#A8DC01"/>
    <path d="M89.7477 35.5072C89.6297 35.683 89.4455 35.8197 89.1942 35.9181C88.9429 36.0166 88.6621 36.0658 88.3507 36.0658C88.0394 36.0658 87.7565 35.9865 87.5113 35.8287C87.2671 35.67 87.0769 35.4469 86.9426 35.1565C86.8083 34.8672 86.7401 34.5346 86.7381 34.1608V33.6283C86.7381 33.0435 86.8785 32.5813 87.1603 32.2427C87.4422 31.9041 87.8196 31.7343 88.2948 31.7343C88.7089 31.7343 89.0416 31.8448 89.2939 32.0659C89.5463 32.2869 89.6958 32.5914 89.7436 32.9792H89.4038C89.354 32.6698 89.2339 32.4346 89.0436 32.2749C88.8534 32.1151 88.6041 32.0357 88.2968 32.0357C87.9214 32.0357 87.6243 32.1754 87.4055 32.4557C87.1868 32.7361 87.0769 33.1309 87.0769 33.6414V34.1397C87.0769 34.4602 87.1288 34.7436 87.2326 34.9907C87.3363 35.2369 87.4859 35.4278 87.6802 35.5635C87.8746 35.6991 88.0974 35.7664 88.3497 35.7664C88.6417 35.7664 88.8941 35.7182 89.1037 35.6217C89.24 35.5584 89.3407 35.4841 89.4069 35.3987V34.3095H88.3273V34.0081H89.7457V35.5082L89.7477 35.5072Z" fill="#A8DC01"/>
    <path d="M88.3508 36.3522C87.9794 36.3522 87.6436 36.2557 87.3526 36.0678C87.0627 35.879 86.8358 35.6137 86.6791 35.2761C86.5275 34.9495 86.4502 34.5748 86.4481 34.1628V33.6283C86.4481 32.9782 86.6119 32.4517 86.9365 32.0609C87.2743 31.6549 87.7311 31.449 88.2948 31.449C88.7801 31.449 89.181 31.5846 89.4863 31.8529C89.7915 32.1212 89.9746 32.4879 90.0316 32.9451L90.0713 33.2656H89.1576L89.119 33.0244C89.0803 32.7823 88.9948 32.6085 88.8575 32.4929C88.7201 32.3784 88.537 32.3221 88.2989 32.3221C88.012 32.3221 87.8013 32.4206 87.6365 32.6316C87.4585 32.8586 87.3679 33.1993 87.3679 33.6424V34.1397C87.3679 34.421 87.4127 34.6712 87.5022 34.8812C87.5856 35.0792 87.6996 35.2259 87.8492 35.3293C88.1819 35.5614 88.6825 35.5012 88.9836 35.3625C89.0437 35.3344 89.0884 35.3062 89.12 35.2821V34.5959H88.0404V33.7227H90.0377V35.5936L89.9899 35.6659C89.8393 35.89 89.6084 36.0648 89.3021 36.1854C89.0172 36.2959 88.6977 36.3532 88.3518 36.3532" fill="#A8DC01"/>
    <path d="M99.3566 36.0076H99.0168L96.7061 32.3995V36.0076H96.3643V31.7916H96.7061L99.0198 35.4027V31.7916H99.3566V36.0076Z" fill="#A8DC01"/>
    <path d="M99.3098 36.3894L99.2488 36.2939H98.8581L96.9961 33.3872V36.2939H96.0743V31.5052H96.4172V31.4118L96.4762 31.5052H96.8659L98.7299 34.415V31.5052H99.6466V36.2939H99.3098V36.3894Z" fill="#A8DC01"/>
    <path d="M115.961 35.5072C115.843 35.683 115.658 35.8197 115.407 35.9181C115.156 36.0166 114.875 36.0658 114.564 36.0658C114.252 36.0658 113.969 35.9865 113.724 35.8287C113.48 35.67 113.29 35.4469 113.155 35.1565C113.021 34.8672 112.953 34.5346 112.951 34.1608V33.6283C112.951 33.0435 113.091 32.5813 113.373 32.2427C113.655 31.9041 114.032 31.7343 114.508 31.7343C114.922 31.7343 115.254 31.8448 115.507 32.0659C115.759 32.2869 115.909 32.5914 115.957 32.9792H115.617C115.567 32.6698 115.447 32.4346 115.256 32.2749C115.066 32.1151 114.817 32.0357 114.51 32.0357C114.134 32.0357 113.837 32.1754 113.618 32.4557C113.4 32.7361 113.29 33.1309 113.29 33.6414V34.1397C113.29 34.4602 113.342 34.7436 113.445 34.9907C113.549 35.2369 113.699 35.4278 113.893 35.5635C114.087 35.6991 114.31 35.7664 114.563 35.7664C114.855 35.7664 115.107 35.7182 115.317 35.6217C115.453 35.5584 115.554 35.4841 115.62 35.3987V34.3095H114.54V34.0081H115.959V35.5082L115.961 35.5072Z" fill="#A8DC01"/>
    <path d="M114.564 36.3522C114.192 36.3522 113.856 36.2557 113.565 36.0678C113.275 35.879 113.049 35.6137 112.892 35.2761C112.74 34.9495 112.663 34.5748 112.661 34.1628V33.6283C112.661 32.9782 112.825 32.4517 113.149 32.0609C113.487 31.6549 113.944 31.449 114.508 31.449C114.993 31.449 115.394 31.5846 115.699 31.8529C116.004 32.1212 116.187 32.4879 116.244 32.9451L116.284 33.2656H115.37L115.332 33.0244C115.293 32.7823 115.208 32.6085 115.07 32.4929C114.933 32.3784 114.75 32.3221 114.512 32.3221C114.225 32.3221 114.014 32.4206 113.849 32.6316C113.671 32.8586 113.581 33.1993 113.581 33.6424V34.1397C113.581 34.421 113.626 34.6712 113.715 34.8812C113.798 35.0792 113.912 35.2259 114.062 35.3293C114.395 35.5614 114.896 35.5012 115.196 35.3625C115.256 35.3344 115.301 35.3062 115.333 35.2821V34.5959H114.253V33.7227H116.251V35.5936L116.203 35.6659C116.052 35.89 115.821 36.0648 115.515 36.1854C115.23 36.2959 114.911 36.3532 114.565 36.3532" fill="#A8DC01"/>
    <path d="M124.08 34.2502H122.912V36.0076H122.57V31.7916H123.875C124.304 31.7916 124.64 31.9011 124.881 32.1181C125.122 32.3362 125.242 32.6406 125.242 33.0325C125.242 33.3028 125.167 33.5409 125.016 33.7469C124.865 33.9538 124.663 34.0955 124.409 34.1749L125.414 35.9704V36.0076H125.053L124.081 34.2502H124.08ZM122.912 33.9488H123.953C124.238 33.9488 124.468 33.8634 124.641 33.6936C124.814 33.5238 124.9 33.3028 124.9 33.0325C124.9 32.7351 124.809 32.504 124.629 32.3392C124.449 32.1744 124.196 32.093 123.87 32.093H122.912V33.9488Z" fill="#A8DC01"/>
    <path d="M125.413 36.2939H124.88L123.908 34.5366H123.202V36.2939H122.28V31.5052H123.875C124.377 31.5052 124.781 31.6409 125.076 31.9071C125.379 32.1814 125.532 32.5592 125.532 33.0315C125.532 33.362 125.437 33.6594 125.25 33.9136C125.131 34.0764 124.984 34.209 124.814 34.3085L125.703 35.9704V36.2567L125.413 36.2939ZM123.201 33.6625H123.952C124.159 33.6625 124.317 33.6062 124.434 33.4906C124.552 33.3751 124.609 33.2254 124.609 33.0315C124.609 32.8154 124.551 32.6577 124.432 32.5492C124.306 32.4336 124.122 32.3784 123.869 32.3784H123.201V33.6625Z" fill="#A8DC01"/>
    <path d="M134.79 34.1287C134.79 34.5165 134.726 34.8571 134.597 35.1505C134.469 35.4439 134.287 35.67 134.049 35.8277C133.812 35.9865 133.537 36.0648 133.227 36.0648C132.758 36.0648 132.378 35.889 132.089 35.5363C131.8 35.1837 131.656 34.7084 131.656 34.1106V33.6765C131.656 33.2927 131.721 32.9521 131.85 32.6557C131.98 32.3593 132.164 32.1312 132.401 31.9724C132.638 31.8127 132.911 31.7333 133.221 31.7333C133.53 31.7333 133.803 31.8117 134.039 31.9674C134.276 32.1242 134.458 32.3452 134.587 32.6306C134.716 32.9159 134.784 33.2475 134.789 33.6243V34.1277L134.79 34.1287ZM134.45 33.6705C134.45 33.1631 134.34 32.7652 134.121 32.4778C133.902 32.1905 133.602 32.0468 133.221 32.0468C132.839 32.0468 132.549 32.1915 132.327 32.4799C132.106 32.7682 131.995 33.1711 131.995 33.6886V34.1287C131.995 34.629 132.106 35.0249 132.325 35.3173C132.546 35.6097 132.846 35.7564 133.226 35.7564C133.605 35.7564 133.911 35.6117 134.125 35.3233C134.341 35.035 134.448 34.6331 134.448 34.1176V33.6715L134.45 33.6705Z" fill="#A8DC01"/>
    <path d="M133.227 36.3522C132.668 36.3522 132.209 36.1382 131.865 35.7172C131.534 35.3143 131.366 34.7737 131.366 34.1116V33.6765C131.366 33.2555 131.439 32.8747 131.585 32.5432C131.735 32.1975 131.955 31.9262 132.238 31.7363C132.81 31.3535 133.633 31.3555 134.201 31.7313C134.481 31.9162 134.701 32.1804 134.852 32.516C134.996 32.8365 135.073 33.2083 135.078 33.6213V34.1297C135.078 34.5557 135.005 34.9375 134.862 35.265C134.712 35.6077 134.494 35.8769 134.21 36.0668C133.926 36.2567 133.594 36.3532 133.225 36.3532M133.222 32.3322C132.938 32.3322 132.727 32.4336 132.559 32.6517C132.377 32.8878 132.286 33.2364 132.286 33.6876V34.1277C132.286 34.5617 132.377 34.9043 132.559 35.1455C132.726 35.3655 132.939 35.469 133.227 35.469C133.515 35.469 133.733 35.3685 133.894 35.1525C134.07 34.9154 134.161 34.5667 134.161 34.1156V33.6705C134.161 33.2284 134.07 32.8848 133.89 32.6497C133.725 32.4326 133.513 32.3322 133.222 32.3322Z" fill="#A8DC01"/>
    <path d="M144.068 31.7916V34.6702C144.066 34.9536 144.006 35.2007 143.889 35.4117C143.771 35.6217 143.605 35.7835 143.39 35.897C143.176 36.0096 142.929 36.0668 142.652 36.0668C142.228 36.0668 141.89 35.9453 141.634 35.7031C141.379 35.461 141.248 35.1254 141.238 34.6964V31.7916H141.575V34.6441C141.575 34.9998 141.672 35.2751 141.865 35.471C142.058 35.667 142.321 35.7654 142.652 35.7654C142.982 35.7654 143.245 35.667 143.437 35.47C143.629 35.2731 143.725 34.9988 143.725 34.6471V31.7916H144.067H144.068Z" fill="#A8DC01"/>
    <path d="M142.652 36.3522C142.153 36.3522 141.743 36.2035 141.434 35.9091C141.122 35.6137 140.96 35.2078 140.948 34.7024V31.5052H141.864V34.6441C141.864 34.9244 141.932 35.1294 142.072 35.2711C142.346 35.5494 142.955 35.5504 143.229 35.2711C143.367 35.1284 143.435 34.9244 143.435 34.6481V31.5062H144.357V34.6712C144.355 35.0038 144.283 35.3002 144.141 35.5514C143.996 35.8106 143.789 36.0116 143.526 36.1502C143.27 36.2849 142.976 36.3532 142.651 36.3532" fill="#A8DC01"/>
    <path d="M151.007 34.2904V36.0076H150.667V31.7916H152.037C152.455 31.7916 152.785 31.9031 153.027 32.1272C153.269 32.3512 153.39 32.6587 153.39 33.0506C153.39 33.4424 153.273 33.7519 153.041 33.9669C152.808 34.1819 152.471 34.2894 152.03 34.2894H151.008L151.007 34.2904ZM151.007 33.989H152.037C152.366 33.989 152.618 33.9066 152.791 33.7428C152.964 33.5791 153.05 33.35 153.05 33.0556C153.05 32.7612 152.964 32.5311 152.793 32.3583C152.621 32.1855 152.377 32.097 152.06 32.093H151.008V33.99L151.007 33.989Z" fill="#A8DC01"/>
    <path d="M151.297 36.2939H150.378V31.5052H152.037C152.528 31.5052 152.927 31.6449 153.224 31.9182C153.526 32.1975 153.679 32.5793 153.679 33.0516C153.679 33.5238 153.53 33.9056 153.238 34.1759C152.951 34.4421 152.544 34.5768 152.029 34.5768H151.297V36.2939ZM151.297 33.7026H152.037C152.287 33.7026 152.473 33.6464 152.589 33.5359C152.704 33.4273 152.76 33.2696 152.76 33.0546C152.76 32.8396 152.703 32.6758 152.585 32.5582C152.468 32.4407 152.295 32.3814 152.055 32.3784H151.296V33.7026H151.297Z" fill="#A8DC01"/>
    <path d="M200.85 6.96901C202.547 6.96901 203.904 8.3184 203.903 10.0034C203.903 11.6562 202.528 12.9996 200.84 12.9986C199.15 12.9976 197.795 11.6442 197.797 9.96118C197.799 8.31438 199.172 6.96901 200.85 6.96901ZM203.273 9.99032C203.277 8.67509 202.194 7.59799 200.859 7.59196C199.525 7.58593 198.435 8.65801 198.429 9.98128C198.423 11.2955 199.51 12.3706 200.853 12.3766C202.176 12.3827 203.269 11.3056 203.274 9.99032" fill="#A8DC01"/>
    <path d="M200.844 13.094H200.841C199.109 13.093 197.699 11.6874 197.701 9.96118C197.703 8.25812 199.117 6.87356 200.851 6.87356C201.698 6.87356 202.491 7.1981 203.083 7.78789C203.675 8.37668 204.001 9.1634 204 10.0034C204 10.8283 203.671 11.605 203.074 12.1897C202.477 12.7725 201.686 13.094 200.844 13.094ZM200.85 7.06446C199.221 7.06446 197.896 8.36462 197.894 9.96118C197.893 11.5819 199.214 12.9021 200.84 12.9031H200.843C201.633 12.9031 202.377 12.6017 202.936 12.0541C203.497 11.5055 203.805 10.777 203.806 10.0034C203.806 9.21364 203.501 8.47414 202.944 7.92152C202.389 7.3689 201.645 7.06446 200.85 7.06446ZM200.863 12.4711H200.851C200.177 12.4681 199.542 12.2078 199.066 11.7366C198.59 11.2654 198.328 10.6414 198.331 9.98027C198.334 9.31512 198.599 8.69016 199.077 8.21993C199.552 7.75272 200.18 7.4955 200.846 7.4955H200.858C202.247 7.50153 203.373 8.61983 203.369 9.98932C203.367 10.6535 203.1 11.2784 202.62 11.7497C202.146 12.2149 201.522 12.4701 200.863 12.4701M200.847 7.68741C200.232 7.68741 199.652 7.92454 199.213 8.35558C198.772 8.78963 198.528 9.36737 198.524 9.98228C198.521 10.5922 198.763 11.1669 199.202 11.602C199.643 12.037 200.228 12.2772 200.851 12.2802C201.452 12.2802 202.043 12.0461 202.483 11.615C202.928 11.179 203.173 10.6022 203.175 9.98932C203.179 8.72533 202.14 7.69244 200.857 7.68641H200.846L200.847 7.68741Z" fill="#A8DC01"/>
    <path d="M200.211 10.2586V11.4663H199.67V8.49926C199.695 8.49825 199.719 8.49524 199.742 8.49524C200.162 8.49524 200.581 8.49524 201 8.49524C201.181 8.49524 201.36 8.51332 201.528 8.58265C201.859 8.7183 202.016 8.97652 202.034 9.32015C202.053 9.71602 201.888 9.97424 201.522 10.144C201.514 10.1481 201.507 10.1531 201.493 10.1601C201.667 10.5932 201.84 11.0252 202.018 11.4713H201.92C201.784 11.4713 201.649 11.4693 201.514 11.4723C201.462 11.4733 201.438 11.4603 201.418 11.409C201.28 11.0393 201.137 10.6715 200.996 10.3038C200.986 10.2767 200.981 10.2465 200.937 10.2475C200.702 10.2495 200.467 10.2495 200.232 10.2506C200.228 10.2506 200.224 10.2536 200.211 10.2586ZM200.215 9.81348C200.23 9.81549 200.24 9.8175 200.251 9.8175C200.477 9.8175 200.704 9.82152 200.93 9.81549C201.017 9.81348 201.108 9.79841 201.19 9.77028C201.354 9.71502 201.446 9.59445 201.463 9.42364C201.483 9.23675 201.42 9.08704 201.249 8.99159C201.15 8.93532 201.04 8.92226 200.928 8.92126C200.71 8.92025 200.493 8.92126 200.276 8.92126C200.256 8.92126 200.237 8.92327 200.213 8.92528V9.81348H200.215Z" fill="#A8DC01"/>
    <path d="M201.512 11.5688C201.418 11.5688 201.36 11.5286 201.328 11.4422C201.221 11.1579 201.112 10.8735 201.003 10.5902L200.908 10.343C200.761 10.345 200.614 10.345 200.467 10.345H200.307V11.5618H199.574V8.40984L199.664 8.40381C199.703 8.4018 199.722 8.39979 199.741 8.39979H200.999C201.232 8.39979 201.407 8.42993 201.565 8.49524C201.915 8.63892 202.11 8.92327 202.129 9.31613C202.15 9.72607 201.981 10.0185 201.615 10.2053L202.161 11.5678H201.809C201.711 11.5668 201.615 11.5668 201.517 11.5688H201.512ZM201.644 11.3759C201.699 11.3759 201.754 11.3759 201.809 11.3759H201.876L201.373 10.1209L201.443 10.0787C201.463 10.0657 201.47 10.0607 201.478 10.0576C201.813 9.90291 201.953 9.67684 201.936 9.32316C201.92 8.99963 201.774 8.78662 201.49 8.66906C201.357 8.6138 201.206 8.58969 200.999 8.58868H199.767V11.3689H200.115V10.1923L200.175 10.1682L200.211 10.2556L200.182 10.1641L200.232 10.1521H200.467C200.624 10.1521 200.78 10.1521 200.936 10.1501H200.939C201.009 10.1501 201.058 10.1873 201.083 10.2606L201.183 10.5198C201.292 10.8042 201.402 11.0885 201.508 11.3739C201.554 11.3739 201.598 11.3739 201.643 11.3739M200.608 9.91396H200.251C200.238 9.91396 200.225 9.91195 200.209 9.90894L200.128 9.89587L200.118 9.81348V8.83585L200.208 8.82982C200.245 8.82782 200.26 8.82581 200.277 8.82581H200.439C200.602 8.82581 200.766 8.82581 200.93 8.82581C201.024 8.82581 201.166 8.83384 201.298 8.9082C201.493 9.01772 201.584 9.19857 201.561 9.43168C201.537 9.64167 201.418 9.79339 201.222 9.8597C201.132 9.88985 201.033 9.90693 200.933 9.90994C200.825 9.91296 200.717 9.91396 200.609 9.91396M200.311 9.72205H200.43C200.595 9.72406 200.761 9.72406 200.927 9.72004C201.007 9.71803 201.088 9.70397 201.159 9.68086C201.284 9.63866 201.352 9.55124 201.367 9.41359C201.384 9.25584 201.332 9.14833 201.203 9.07499C201.131 9.0358 201.047 9.01772 200.929 9.01772C200.765 9.01772 200.602 9.01772 200.439 9.01772H200.311V9.72306V9.72205Z" fill="#A8DC01"/>
    <path d="M57.8228 2.62242H52.4628V29.0707H57.8228V2.62242Z" fill="black"/>
    <path d="M64.6185 29.0707H59.52V9.31713H60.7521L62.433 11.2352C63.254 10.4977 64.185 9.92903 65.2249 9.53014C66.2647 9.13125 67.3514 8.9303 68.4838 8.9303C69.7037 8.9303 70.8555 9.16139 71.9391 9.62258C73.0217 10.0838 73.9679 10.7178 74.7778 11.5226C75.5877 12.3274 76.2257 13.2678 76.6927 14.3449C77.1597 15.421 77.3937 16.5675 77.3937 17.7842V29.0717H72.2952V17.7842C72.2952 17.2678 72.1955 16.7785 71.9961 16.3173C71.7966 15.8561 71.5219 15.4542 71.174 15.1096C70.826 14.7659 70.42 14.4957 69.9601 14.2987C69.5002 14.1028 69.0078 14.0033 68.4848 14.0033C67.9618 14.0033 67.445 14.1028 66.9718 14.2987C66.4977 14.4957 66.0877 14.7659 65.7387 15.1096C65.3907 15.4552 65.116 15.8571 64.9176 16.3173C64.7182 16.7785 64.6185 17.2678 64.6185 17.7842V29.0717V29.0707Z" fill="black"/>
    <path d="M84.0113 29.0707H78.8762V1.45992H84.0113V18.8704L91.6138 9.35431H97.4774L90.8476 17.5793L97.4774 29.0707H91.6138L87.5602 21.8957L84.0113 26.5437V29.0707Z" fill="black"/>
    <path d="M108.986 29.0707H97.3309V24.0539H108.986C109.334 24.0539 109.633 23.9324 109.882 23.6862C110.131 23.44 110.256 23.1446 110.256 22.801C110.256 22.4574 110.132 22.2112 109.882 22.1007C109.633 21.9892 109.334 21.9339 108.986 21.9339H103.682C102.798 21.9339 101.969 21.7681 101.198 21.4365C100.426 21.104 99.7534 20.6528 99.1806 20.0801C98.6078 19.5084 98.156 18.8423 97.8264 18.0796C97.4967 17.317 97.3309 16.5002 97.3309 15.627C97.3309 14.7539 97.4957 13.935 97.8264 13.1734C98.156 12.4108 98.6068 11.7477 99.1806 11.182C99.7534 10.6173 100.426 10.1712 101.198 9.84464C101.969 9.51909 102.798 9.35632 103.682 9.35632H114.01V14.3731H103.682C103.334 14.3731 103.035 14.4967 102.785 14.7418C102.536 14.988 102.412 15.2834 102.412 15.627C102.412 15.9707 102.536 16.2872 102.785 16.5404C103.035 16.7915 103.334 16.9181 103.682 16.9181H108.986C109.857 16.9181 110.679 17.0628 111.451 17.3512C112.223 17.6396 112.896 18.0415 113.469 18.5589C114.041 19.0754 114.495 19.6953 114.832 20.4217C115.169 21.1472 115.337 21.9399 115.337 22.802C115.337 23.6641 115.169 24.489 114.832 25.2456C114.495 26.0012 114.042 26.6643 113.469 27.237C112.896 27.8087 112.223 28.2579 111.451 28.5834C110.679 28.9089 109.857 29.0717 108.986 29.0717" fill="black"/>
    <path d="M121.651 29.0707H116.553V1.45992H121.651V10.1842C122.261 9.73009 122.889 9.40656 123.538 9.21565C124.185 9.02475 124.845 8.9293 125.518 8.9293C126.75 8.9293 127.909 9.16039 128.991 9.62158C130.075 10.0828 131.018 10.7168 131.821 11.5216C132.624 12.3264 133.259 13.2668 133.725 14.3439C134.192 15.42 134.426 16.5665 134.426 17.7832V29.0707H129.29V17.7832H129.328C129.328 17.2668 129.228 16.7775 129.029 16.3163C128.829 15.8551 128.555 15.4532 128.207 15.1086C127.859 14.7649 127.453 14.4947 126.993 14.2977C126.533 14.1018 126.041 14.0023 125.518 14.0023C124.995 14.0023 124.478 14.1018 124.005 14.2977C123.53 14.4947 123.12 14.7649 122.771 15.1086C122.423 15.4542 122.149 15.8561 121.95 16.3163C121.751 16.7775 121.651 17.2668 121.651 17.7832V29.0707Z" fill="black"/>
    <path d="M155.926 29.0707H154.693L152.713 26.3589C152.228 26.7899 151.714 27.1928 151.173 27.5666C150.632 27.9424 150.062 28.2669 149.464 28.5432C148.866 28.8205 148.253 29.0396 147.624 29.1983C146.995 29.3581 146.356 29.4384 145.71 29.4384C144.302 29.4384 142.979 29.2053 141.741 28.7381C140.502 28.2709 139.418 27.5917 138.491 26.6995C137.563 25.8082 136.832 24.7161 136.297 23.426C135.76 22.1348 135.494 20.6659 135.494 19.0181C135.494 17.4808 135.76 16.0701 136.297 14.785C136.832 13.4999 137.563 12.3967 138.491 11.4743C139.418 10.553 140.502 9.83659 141.741 9.32517C142.979 8.81576 144.302 8.56055 145.71 8.56055C146.357 8.56055 146.998 8.63992 147.633 8.80068C148.268 8.96044 148.885 9.18149 149.482 9.46383C150.079 9.74717 150.649 10.0787 151.19 10.4595C151.731 10.8414 152.239 11.2533 152.712 11.6954L154.692 9.3533H155.925V29.0697L155.926 29.0707ZM150.789 19.0191C150.789 18.3308 150.655 17.6627 150.387 17.0176C150.12 16.3726 149.756 15.8008 149.295 15.3035C148.834 14.8051 148.296 14.4052 147.679 14.1038C147.062 13.8024 146.406 13.6517 145.709 13.6517C145.012 13.6517 144.355 13.7682 143.738 14.0023C143.122 14.2354 142.587 14.5801 142.132 15.0362C141.677 15.4904 141.319 16.053 141.057 16.7232C140.796 17.3934 140.665 18.16 140.665 19.0201C140.665 19.8802 140.795 20.6468 141.057 21.316C141.319 21.9861 141.677 22.5488 142.132 23.004C142.586 23.4581 143.121 23.8038 143.738 24.0379C144.355 24.271 145.011 24.3885 145.709 24.3885C146.407 24.3885 147.063 24.2378 147.679 23.9364C148.296 23.635 148.834 23.2361 149.295 22.7367C149.755 22.2393 150.12 21.6666 150.387 21.0216C150.655 20.3765 150.789 19.7094 150.789 19.0211" fill="black"/>
    <path d="M162.424 36.5953H157.288V9.31713H158.52L160.556 11.6954C161.016 11.2664 161.52 10.8604 162.069 10.4786C162.617 10.0978 163.187 9.76927 163.778 9.49196C164.369 9.21565 164.983 8.99762 165.618 8.83786C166.253 8.67811 166.894 8.59772 167.542 8.59772C168.948 8.59772 170.272 8.8459 171.51 9.34527C172.749 9.84262 173.832 10.547 174.76 11.4563C175.688 12.3666 176.419 13.4648 176.954 14.7489C177.49 16.0339 177.758 17.4577 177.758 19.0191C177.758 20.5805 177.49 22.1027 176.954 23.3998C176.419 24.697 175.688 25.7972 174.76 26.7015C173.832 27.6048 172.749 28.296 171.51 28.7763C170.272 29.2556 168.948 29.4957 167.542 29.4957C167.093 29.4957 166.647 29.4465 166.206 29.348C165.764 29.2495 165.329 29.1179 164.898 28.9521C164.469 28.7853 164.046 28.5985 163.629 28.3895C163.211 28.1795 162.81 27.9655 162.424 27.7444V36.5974V36.5953ZM172.64 19.0191C172.64 18.1831 172.507 17.4326 172.239 16.7684C171.971 16.1043 171.608 15.5416 171.147 15.0804C170.686 14.6192 170.143 14.2666 169.522 14.0204C168.9 13.7742 168.239 13.6517 167.543 13.6517C166.847 13.6517 166.189 13.7742 165.572 14.0204C164.955 14.2666 164.416 14.6192 163.956 15.0804C163.495 15.5416 163.131 16.1043 162.863 16.7684C162.595 17.4326 162.462 18.1821 162.462 19.0191C162.462 19.8561 162.595 20.5503 162.863 21.2145C163.13 21.8776 163.495 22.4443 163.956 22.9115C164.416 23.3787 164.955 23.7415 165.572 23.9987C166.189 24.2569 166.845 24.3865 167.543 24.3865C168.241 24.3865 168.9 24.2569 169.522 23.9987C170.144 23.7415 170.686 23.3787 171.147 22.9115C171.607 22.4443 171.971 21.8776 172.239 21.2145C172.507 20.5503 172.64 19.8179 172.64 19.0191Z" fill="black"/>
    <path d="M187.402 24.2378C187.601 24.2991 187.799 24.3393 187.999 24.3584C188.198 24.3755 188.397 24.3865 188.596 24.3865C189.094 24.3865 189.574 24.3192 190.034 24.1836C190.494 24.0479 190.927 23.855 191.332 23.6018C191.736 23.3506 192.097 23.0431 192.415 22.6804C192.732 22.3177 192.991 21.9158 193.19 21.4727L196.926 25.1803C196.452 25.8444 195.908 26.4412 195.292 26.9698C194.675 27.4983 194.009 27.9464 193.294 28.3161C192.577 28.6849 191.825 28.9642 191.034 29.1551C190.243 29.346 189.43 29.4415 188.597 29.4415C187.189 29.4415 185.866 29.1832 184.628 28.6668C183.389 28.1503 182.305 27.4309 181.378 26.5096C180.45 25.5862 179.719 24.489 179.184 23.217C178.647 21.9449 178.381 20.5453 178.381 19.0211C178.381 17.4969 178.647 16.0329 179.184 14.7428C179.719 13.4517 180.45 12.3505 181.378 11.4412C182.305 10.5309 183.389 9.82353 184.628 9.32015C185.866 8.81576 187.189 8.56457 188.597 8.56457C189.43 8.56457 190.246 8.66303 191.043 8.85997C191.84 9.0559 192.597 9.33823 193.312 9.70798C194.028 10.0767 194.697 10.5289 195.321 11.0644C195.943 11.5989 196.491 12.1988 196.964 12.8629L187.401 24.2418L187.402 24.2378ZM190.017 13.8546C189.779 13.7682 189.546 13.713 189.315 13.6878C189.086 13.6637 188.845 13.6517 188.597 13.6517C187.899 13.6517 187.243 13.7783 186.626 14.0295C186.01 14.2816 185.475 14.6414 185.02 15.1086C184.565 15.5768 184.207 16.1384 183.945 16.7966C183.684 17.4547 183.553 18.1952 183.553 19.0191C183.553 19.204 183.562 19.4119 183.581 19.6461C183.599 19.8792 183.631 20.1173 183.675 20.3564C183.717 20.5966 183.77 20.8256 183.833 21.0467C183.895 21.2687 183.977 21.4647 184.077 21.6365L190.017 13.8536V13.8546Z" fill="black"/>
    <path d="M19.491 2.03363L21.5514 0L28.5352 6.94892L21.7803 11.1378L17.4632 8.46007L15.5677 10.6806L21.7803 14.5328L30.4297 9.16742L36.0349 15.7315L21.7803 24.5664L9.96552 17.2407L8.07202 19.4572L21.7803 27.9574L37.9233 17.943L43.5336 24.5131L21.7803 38L-0.000518799 24.497L1.86144 22.3268L1.90926 22.3569L1.91027 22.3559L21.7803 34.6763L39.2399 23.851L37.3434 21.6305L21.7803 31.2812L3.77732 20.1213L9.38556 13.5542L21.7803 21.2436L31.7402 15.0674L29.8488 12.8539L21.7803 17.8566L11.274 11.3417L16.8832 4.77261L21.7803 7.81401L24.2425 6.28678L19.491 2.03363Z" fill="#A8DC01"/>
  </g>
  <defs>
    <clipPath id="clip0_1_356">
      <rect width="204" height="38" fill="white" transform="translate(-0.000518799)"/>
    </clipPath>
  </defs>
</svg>