<svg xmlns="http://www.w3.org/2000/svg" width="336" height="114" viewBox="0 0 336 114" fill="black">
  <!-- SVG izquierdo (original 98x114) -->
  <g id="left" transform="translate(0,0)">
    <path d="M64.6025 92.0279L82.7542 80.833V43.7134L64.6025 54.9044V92.0279Z" fill="#000000"/>
    <path d="M88.9058 83.0932L60.4806 100.277L55.8373 103.082V51.0003L63.4847 46.377L88.9058 31.0116V22.351L72.1627 32.4842V21.746V15.2391V13.1044L63.4767 18.3517L55.8333 22.9712V6.93615L55.8293 6.93995V4.71391L46.8649 10.1287L40.2201 14.147L39.3487 14.6721V0.615723L35.6603 2.9483L0.459018 22.8761L0.0292969 38.4431V83.3444L8.99374 88.1694V88.1427L9.00966 88.1694L15.6425 84.7675V91.7501L24.6069 96.5751V96.3962L24.7064 96.5751L31.2517 93.2189V100.16L39.2333 104.463L40.2161 104.943V104.931L40.2241 104.943L46.8688 101.533V108.497L53.2669 113.044L97.9936 85.403L88.9058 83.0932ZM8.99374 78.4471V33.0283V25.6767L30.3803 13.3365V20.1059L24.6029 23.5991L15.6385 29.0139V75.0415L8.99374 78.4471ZM24.6069 86.8984V32.2369L31.2517 28.2186L39.289 23.3479H39.3447V23.3137L40.2161 22.7886L46.8609 18.7703L46.8649 18.7665V28.3822L46.8609 28.386L40.2161 32.4043L31.2517 37.8191V83.489L24.6069 86.8984ZM40.2161 95.2128V41.0459L46.8609 37.0276L55.8253 31.6128L63.1903 27.1607V37.9066L55.8293 42.3587L46.8649 47.7735V91.8033L40.2161 95.2128Z" fill="#C60001"/>
  </g>
</svg>