<svg xmlns="http://www.w3.org/2000/svg" width="336" height="114" viewBox="0 0 336 114" fill="black">
  <!-- SVG izquierdo (original 98x114) -->
  <g id="left" transform="translate(0,0)">
    <path d="M64.6025 92.0279L82.7542 80.833V43.7134L64.6025 54.9044V92.0279Z" fill="#1D1D1B"/>
    <path d="M88.9058 83.0932L60.4806 100.277L55.8373 103.082V51.0003L63.4847 46.377L88.9058 31.0116V22.351L72.1627 32.4842V21.746V15.2391V13.1044L63.4767 18.3517L55.8333 22.9712V6.93615L55.8293 6.93995V4.71391L46.8649 10.1287L40.2201 14.147L39.3487 14.6721V0.615723L35.6603 2.9483L0.459018 22.8761L0.0292969 38.4431V83.3444L8.99374 88.1694V88.1427L9.00966 88.1694L15.6425 84.7675V91.7501L24.6069 96.5751V96.3962L24.7064 96.5751L31.2517 93.2189V100.16L39.2333 104.463L40.2161 104.943V104.931L40.2241 104.943L46.8688 101.533V108.497L53.2669 113.044L97.9936 85.403L88.9058 83.0932ZM8.99374 78.4471V33.0283V25.6767L30.3803 13.3365V20.1059L24.6029 23.5991L15.6385 29.0139V75.0415L8.99374 78.4471ZM24.6069 86.8984V32.2369L31.2517 28.2186L39.289 23.3479H39.3447V23.3137L40.2161 22.7886L46.8609 18.7703L46.8649 18.7665V28.3822L46.8609 28.386L40.2161 32.4043L31.2517 37.8191V83.489L24.6069 86.8984ZM40.2161 95.2128V41.0459L46.8609 37.0276L55.8253 31.6128L63.1903 27.1607V37.9066L55.8293 42.3587L46.8649 47.7735V91.8033L40.2161 95.2128Z" fill="#C60001"/>
  </g>

  <!-- SVG derecho (original 238x66), desplazado a la derecha y centrado verticalmente -->
  <!-- translateX = 98 (ancho del izquierdo). translateY = (114 - 66) / 2 = 24 para centrar verticalmente -->
  <g id="right" transform="translate(98,24)">
    <path d="M67.3293 53.0044V54.9374H64.003V64.9489H61.5003V54.9374H58.1699V53.0044H67.3293Z" fill="#C60001"/>
    <path d="M72.5496 53.0044V64.9489H70.0469V53.0044H72.5496Z" fill="#C60001"/>
    <path d="M78.4187 63.0462H82.5329V64.945H75.916V53.0005H78.4187V63.0462Z" fill="#C60001"/>
    <path d="M87.5262 54.9375V57.9322H91.7318V59.831H87.5262V62.9969H92.269V64.949H85.0234V52.9893H92.269V54.9413H87.5262V54.9375Z" fill="#C60001"/>
    <path d="M110.198 64.945L108.837 63.6627C107.68 64.6559 106.267 65.1505 104.596 65.1505C103.677 65.1505 102.869 64.9983 102.173 64.6977C101.477 64.3971 100.935 63.9671 100.553 63.4154C100.171 62.8598 99.9805 62.2205 99.9805 61.4899C99.9805 60.7023 100.211 59.9945 100.677 59.3666C101.142 58.7388 101.827 58.2327 102.734 57.8446C102.412 57.4679 102.181 57.1064 102.038 56.7563C101.894 56.41 101.823 56.0333 101.823 55.6376C101.823 55.0896 101.97 54.5987 102.268 54.1573C102.567 53.7197 102.993 53.3735 103.55 53.1223C104.103 52.8712 104.751 52.7456 105.491 52.7456C106.243 52.7456 106.888 52.8826 107.425 53.1566C107.962 53.4305 108.36 53.7958 108.623 54.2525C108.885 54.7091 109.001 55.2152 108.961 55.7745H106.53C106.542 55.3978 106.446 55.1086 106.243 54.9108C106.04 54.7129 105.766 54.6102 105.42 54.6102C105.085 54.6102 104.807 54.7053 104.588 54.8917C104.369 55.0782 104.258 55.3217 104.258 55.6185C104.258 55.9039 104.345 56.1855 104.524 56.4671C104.703 56.7487 104.994 57.0911 105.4 57.5021L108.547 60.4778C108.571 60.4549 108.587 60.4321 108.603 60.4093C108.615 60.3864 108.627 60.3636 108.639 60.3408L109.657 58.716H112.271L111.018 60.8202C110.779 61.2654 110.521 61.6878 110.25 62.0874L113.274 64.945H110.198ZM107.262 62.1749L104.186 59.2639C103.028 59.7548 102.451 60.4511 102.451 61.353C102.451 61.8667 102.654 62.2966 103.06 62.6429C103.466 62.9892 104.003 63.1642 104.668 63.1642C105.646 63.168 106.51 62.837 107.262 62.1749Z" fill="#C60001"/>
    <path d="M122.516 64.637C121.82 64.3516 121.267 63.9406 120.861 63.4041C120.455 62.8676 120.248 62.2359 120.236 61.5053H122.918C122.954 61.9962 123.137 62.3843 123.463 62.6697C123.789 62.9551 124.243 63.0959 124.812 63.0959C125.397 63.0959 125.855 62.9627 126.193 62.6925C126.527 62.4262 126.694 62.0723 126.694 61.6385C126.694 61.2846 126.579 60.9954 126.356 60.7671C126.129 60.5388 125.847 60.36 125.504 60.2268C125.166 60.0974 124.697 59.9528 124.1 59.7892C123.288 59.5609 122.628 59.3364 122.122 59.1119C121.617 58.8873 121.179 58.5525 120.813 58.1035C120.451 57.6545 120.268 57.0494 120.268 56.2998C120.268 55.5921 120.455 54.9756 120.825 54.4505C121.195 53.9254 121.713 53.5258 122.381 53.2442C123.049 52.9627 123.813 52.8257 124.673 52.8257C125.962 52.8257 127.008 53.1263 127.812 53.7237C128.616 54.3211 129.062 55.1583 129.145 56.2313H126.388C126.364 55.8204 126.181 55.4817 125.843 55.2115C125.504 54.9452 125.051 54.8082 124.494 54.8082C124.004 54.8082 123.614 54.9261 123.324 55.1659C123.03 55.4056 122.886 55.7557 122.886 56.2085C122.886 56.5281 122.998 56.7945 123.217 57.0038C123.435 57.2169 123.714 57.3881 124.04 57.5175C124.366 57.6507 124.828 57.7991 125.425 57.9703C126.236 58.1986 126.897 58.4269 127.41 58.6552C127.924 58.8835 128.365 59.226 128.735 59.6826C129.105 60.1393 129.288 60.7367 129.288 61.4787C129.288 62.118 129.117 62.7116 128.771 63.2595C128.425 63.8075 127.92 64.2451 127.251 64.5685C126.583 64.8919 125.791 65.0556 124.872 65.0556C123.996 65.067 123.213 64.9224 122.516 64.637Z" fill="#C60001"/>
    <path d="M140.843 53.0044V54.9374H137.517V64.9489H135.014V54.9374H131.684V53.0044H140.843Z" fill="#C60001"/>
    <path d="M146.143 64.279C145.164 63.7539 144.388 63.0271 143.816 62.0987C143.243 61.1702 142.956 60.1161 142.956 58.9403C142.956 57.7759 143.243 56.7295 143.816 55.8011C144.388 54.8726 145.164 54.1458 146.143 53.6207C147.122 53.0956 148.192 52.833 149.362 52.833C150.544 52.833 151.618 53.0956 152.589 53.6207C153.56 54.1458 154.332 54.8726 154.897 55.8011C155.462 56.7295 155.748 57.7759 155.748 58.9403C155.748 60.1161 155.466 61.1664 154.897 62.0987C154.332 63.0271 153.556 63.7539 152.581 64.279C151.606 64.8041 150.528 65.0667 149.362 65.0667C148.192 65.0667 147.118 64.8041 146.143 64.279ZM151.348 62.4411C151.921 62.1177 152.37 61.6496 152.688 61.0446C153.007 60.4396 153.17 59.7394 153.17 58.9403C153.17 58.1412 153.011 57.4449 152.688 56.8437C152.366 56.2463 151.921 55.7858 151.348 55.4662C150.775 55.1466 150.114 54.9867 149.362 54.9867C148.61 54.9867 147.946 55.1466 147.369 55.4662C146.792 55.7858 146.338 56.2463 146.02 56.8437C145.698 57.4411 145.534 58.1412 145.534 58.9403C145.534 59.7394 145.698 60.4396 146.02 61.0446C146.342 61.6496 146.792 62.1139 147.369 62.4411C147.946 62.7646 148.61 62.9282 149.362 62.9282C150.114 62.9282 150.775 62.7646 151.348 62.4411Z" fill="#C60001"/>
    <path d="M169.185 64.9451H166.682L161.009 56.7487V64.9451H158.506V52.9854H161.009L166.682 61.197V52.9854H169.185V64.9451Z" fill="#C60001"/>
    <path d="M175.053 54.9375V57.9322H179.259V59.831H175.053V62.9969H179.796V64.949H172.551V52.9893H179.796V54.9413H175.053V54.9375Z" fill="#C60001"/>
    <path d="M32.1801 34.18C25.1375 34.081 17.0762 32.8824 17.1956 24.3131V23.1944C17.0762 14.6898 24.6958 13.4417 32.1642 13.3427C37.5437 13.3427 43.9417 13.9934 46.3012 18.8945H63.7447C62.3202 6.64178 51.9672 0.667632 32.1801 0.618164C10.7458 0.698073 0.344991 7.71104 0.412633 22.0566V25.4166C0.376823 31.3223 2.17927 36.0483 5.74038 39.473C10.7976 44.3588 19.7063 46.8398 32.1801 46.8588C51.9672 46.8588 62.3202 40.8847 63.7447 28.5825H46.3012C43.9577 33.5331 37.5596 34.18 32.1801 34.18Z" fill="#1D1D1B"/>
    <path d="M113.76 1.8208H92.6996L68.0225 45.8012H86.8267L90.6106 37.9625H115.845L119.629 45.8012H138.433L113.76 1.8208ZM95.1426 28.6132L103.256 11.9616L111.317 28.6132H95.1426Z" fill="#1D1D1B"/>
    <path d="M204.279 6.65681C201.036 3.54036 196.524 1.80519 192.112 1.82041H146.899V45.8008H163.651V34.6174H192.112C196.54 34.6326 200.989 32.9279 204.247 29.8114C207.49 26.6949 209.32 22.475 209.253 18.2246C209.32 13.8943 207.554 9.78848 204.279 6.65681ZM190.974 21.634C190.023 22.5435 188.801 23.0306 187.444 23.0306H163.651V13.373H187.444C188.837 13.373 190.023 13.86 190.99 14.8189C191.956 15.6941 192.466 16.8471 192.466 18.2094C192.466 19.5412 191.956 20.6789 190.974 21.634Z" fill="#1D1D1B"/>
    <path d="M220.708 1.75586V45.7401H237.475V1.75586H220.708Z" fill="#1D1D1B"/>
  </g>
</svg>
