<?xml version="1.0" encoding="UTF-8"?>
<svg id="Layer_1" data-name="Layer 1" xmlns="http://www.w3.org/2000/svg" viewBox="0 0 1049.86 477.4">
  <defs>
    <style>
      .cls-1 {
        fill: #c40001;
      }

      .cls-2 {
        fill: #000;
      }
    </style>
  </defs>
  <g>
    <polygon class="cls-2" points="234.26 145.7 153.81 199.97 153.81 379.79 234.26 324.78 234.26 145.7"/>
    <path class="cls-1" d="M262.07,336.54l-150.88,96.48v-253.14l150.88-97.04v-38.44l-76.88,48.52V0L0,117.14v301.1l40.82,21.29,29.55-16.53v35.5l30.8,18.91,199.34-129.66-38.44-11.21ZM72,162.53v215.14l-31.49,16.59-1.06-263.66,106.43-67.43v54.16l-73.88,45.2Z"/>
  </g>
  <g>
    <g>
      <path class="cls-2" d="M422.28,281.16c-22.79-.33-48.87-4.39-48.49-33.39v-3.79c-.38-28.77,24.27-33,48.43-33.33,17.41,0,38.11,2.2,45.74,18.78h56.45c-4.61-41.46-38.11-61.66-102.13-61.83-69.35.27-103.01,24-102.79,72.54v11.37c-.11,19.99,5.71,35.97,17.24,47.55,16.36,16.53,45.19,24.93,85.55,24.98,64.02,0,97.52-20.21,102.13-61.83h-56.45c-7.58,16.75-28.28,18.95-45.69,18.95Z"/>
      <path class="cls-2" d="M675.73,171.67h-68.14l-79.84,148.81h60.84l12.24-26.52h81.65l12.24,26.52h60.84l-79.84-148.81ZM615.5,262.32l26.25-56.34,26.08,56.34h-52.33Z"/>
      <path class="cls-2" d="M956.06,188.03c-10.49-10.54-25.09-16.42-39.37-16.36h-146.28v148.81h54.2v-37.83h92.08c14.33.05,28.72-5.71,39.26-16.25,10.49-10.54,16.42-24.82,16.2-39.21.22-14.66-5.49-28.55-16.09-39.15ZM913.01,238.71c-3.08,3.07-7.03,4.72-11.42,4.72h-76.98v-32.67h76.98c4.5,0,8.35,1.65,11.48,4.89,3.13,2.97,4.78,6.86,4.78,11.48s-1.65,8.35-4.83,11.59Z"/>
      <path class="cls-2" d="M995.6,171.45v148.81h54.25v-148.81h-54.25Z"/>
    </g>
    <g>
      <path class="cls-2" d="M504.72,336.83v8.11h-11.01v33.46h-10.13v-33.46h-11.02v-8.11h32.16Z"/>
      <path class="cls-2" d="M524.38,336.83v41.57h-10.12v-41.57h10.12Z"/>
      <path class="cls-2" d="M546.29,370.59h13.27v7.82h-23.39v-41.57h10.12v33.76Z"/>
      <path class="cls-2" d="M578.98,344.94v8.41h13.56v7.82h-13.56v9.12h15.34v8.11h-25.46v-41.57h25.46v8.11h-15.34Z"/>
      <path class="cls-1" d="M654.14,378.4l-3.85-3.73c-3.83,2.92-8.41,4.38-13.74,4.38-3.2,0-5.98-.52-8.35-1.57-2.37-1.05-4.2-2.53-5.48-4.44-1.28-1.92-1.93-4.16-1.93-6.72s.7-4.96,2.1-7.08c1.4-2.11,3.5-3.84,6.3-5.18-1.03-1.26-1.75-2.48-2.19-3.64-.43-1.16-.65-2.44-.65-3.82,0-1.97.51-3.77,1.54-5.39,1.03-1.62,2.52-2.89,4.48-3.82,1.95-.93,4.27-1.39,6.96-1.39s5.03.5,6.93,1.48c1.9.99,3.32,2.31,4.27,3.97.95,1.66,1.38,3.47,1.3,5.45h-9.54c.04-1.07-.23-1.88-.8-2.46-.57-.57-1.33-.86-2.28-.86s-1.74.28-2.37.83c-.64.56-.95,1.27-.95,2.13s.26,1.7.8,2.6c.53.91,1.37,1.96,2.51,3.14l10.13,9.89c.08-.2.18-.43.32-.71.14-.28.29-.59.45-.95l2.19-3.73h10.13l-2.84,5.15c-1.07,2.33-2.29,4.54-3.67,6.63l10.01,9.83h-11.79ZM644.07,368.63l-9.24-8.94c-2.84,1.46-4.27,3.44-4.27,5.92,0,1.5.58,2.75,1.75,3.76,1.16,1.01,2.73,1.51,4.71,1.51,2.65,0,5-.75,7.05-2.25Z"/>
      <path class="cls-2" d="M697.91,377.33c-2.41-.98-4.33-2.45-5.77-4.38-1.44-1.94-2.2-4.26-2.28-6.99h10.78c.16,1.54.69,2.71,1.6,3.52.91.81,2.1,1.21,3.56,1.21s2.68-.34,3.55-1.04c.87-.69,1.3-1.65,1.3-2.87,0-1.03-.35-1.88-1.04-2.55-.69-.67-1.53-1.23-2.54-1.66-1.01-.43-2.44-.93-4.29-1.48-2.69-.83-4.88-1.66-6.58-2.49-1.69-.83-3.15-2.05-4.38-3.67-1.23-1.62-1.84-3.73-1.84-6.34,0-3.87,1.4-6.9,4.21-9.09,2.8-2.19,6.46-3.29,10.96-3.29s8.27,1.09,11.08,3.29c2.8,2.19,4.3,5.24,4.5,9.15h-10.96c-.08-1.34-.57-2.4-1.49-3.17-.9-.77-2.07-1.16-3.49-1.16-1.22,0-2.21.33-2.96.98-.75.65-1.12,1.59-1.12,2.81,0,1.34.63,2.39,1.9,3.14,1.26.75,3.23,1.56,5.92,2.43,2.68.91,4.87,1.78,6.55,2.61,1.68.83,3.12,2.03,4.35,3.61,1.22,1.58,1.83,3.61,1.83,6.1s-.61,4.52-1.81,6.46c-1.2,1.94-2.95,3.47-5.24,4.62-2.29,1.15-5,1.72-8.11,1.72s-5.77-.5-8.17-1.48Z"/>
      <path class="cls-2" d="M761.81,336.83v8.11h-11.01v33.46h-10.13v-33.46h-11.02v-8.11h32.16Z"/>
      <path class="cls-2" d="M780.26,376.09c-3.25-1.82-5.84-4.35-7.76-7.61-1.91-3.26-2.87-6.92-2.87-10.99s.95-7.72,2.87-10.96c1.92-3.24,4.51-5.77,7.76-7.58,3.26-1.82,6.84-2.72,10.75-2.72s7.49.91,10.75,2.72c3.26,1.82,5.82,4.34,7.7,7.58,1.88,3.24,2.81,6.89,2.81,10.96s-.95,7.73-2.84,10.99c-1.9,3.26-4.46,5.79-7.7,7.61-3.24,1.82-6.81,2.73-10.72,2.73s-7.5-.91-10.75-2.73ZM798.98,366.26c1.99-2.21,2.99-5.13,2.99-8.76s-1-6.6-2.99-8.79c-2-2.19-4.65-3.29-7.97-3.29s-6.03,1.09-8.03,3.26c-1.99,2.17-2.99,5.11-2.99,8.83s1,6.6,2.99,8.79c1.99,2.19,4.67,3.29,8.03,3.29s5.97-1.1,7.97-3.32Z"/>
      <path class="cls-2" d="M859.53,378.4h-10.13l-16.94-25.65v25.65h-10.12v-41.57h10.12l16.94,25.76v-25.76h10.13v41.57Z"/>
      <path class="cls-2" d="M881.45,344.94v8.41h13.56v7.82h-13.56v9.12h15.34v8.11h-25.46v-41.57h25.46v8.11h-15.34Z"/>
    </g>
  </g>
</svg>